<?xml version="1.0" encoding="utf-8"?><svg xmlns="http://www.w3.org/2000/svg" xmlns:xlink="http://www.w3.org/1999/xlink" width="1255" height="568" preserveAspectRatio="xMidYMid" viewBox="0 0 1255 568" style="z-index:1;margin-right:-2px;display:block;background-repeat-y:initial;background-repeat-x:initial;background-color:rgb(255, 255, 255);animation-play-state:paused" ><g transform="" style="animation-play-state:paused" ><g id="bk-0.36810691156378406" style="animation-play-state:paused" ><path d="M 646 289 L 725 367 L 737 280 Z" stroke="#965832" fill="#965832" style="animation-play-state:paused" ></path>
<path d="M 646 289 L 645 394 L 725 367 Z" stroke="#90532f" fill="#90532f" style="animation-play-state:paused" ></path>
<path d="M 759 494 L 815 372 L 725 367 Z" stroke="#753f23" fill="#753f23" style="animation-play-state:paused" ></path>
<path d="M 725 367 L 815 372 L 737 280 Z" stroke="#884d2b" fill="#884d2b" style="animation-play-state:paused" ></path>
<path d="M 643 168 L 544 288 L 646 289 Z" stroke="#b46e40" fill="#b46e40" style="animation-play-state:paused" ></path>
<path d="M 646 289 L 544 288 L 645 394 Z" stroke="#9f5e36" fill="#9f5e36" style="animation-play-state:paused" ></path>
<path d="M 815 372 L 832 269 L 737 280 Z" stroke="#8d502d" fill="#8d502d" style="animation-play-state:paused" ></path>
<path d="M 846 172 L 741 154 L 737 280 Z" stroke="#af6b3e" fill="#af6b3e" style="animation-play-state:paused" ></path>
<path d="M 737 280 L 741 154 L 646 289 Z" stroke="#aa673b" fill="#aa673b" style="animation-play-state:paused" ></path>
<path d="M 544 288 L 534 386 L 645 394 Z" stroke="#9c5c34" fill="#9c5c34" style="animation-play-state:paused" ></path>
<path d="M 741 154 L 643 168 L 646 289 Z" stroke="#b97342" fill="#b97342" style="animation-play-state:paused" ></path>
<path d="M 534 386 L 647 496 L 645 394 Z" stroke="#874c2b" fill="#874c2b" style="animation-play-state:paused" ></path>
<path d="M 645 394 L 647 496 L 725 367 Z" stroke="#804627" fill="#804627" style="animation-play-state:paused" ></path>
<path d="M 647 496 L 759 494 L 725 367 Z" stroke="#733e23" fill="#733e23" style="animation-play-state:paused" ></path>
<path d="M 832 269 L 846 172 L 737 280 Z" stroke="#a05f36" fill="#a05f36" style="animation-play-state:paused" ></path>
<path d="M 759 494 L 824 484 L 815 372 Z" stroke="#683621" fill="#683621" style="animation-play-state:paused" ></path>
<path d="M 815 372 L 922 269 L 832 269 Z" stroke="#874c2b" fill="#874c2b" style="animation-play-state:paused" ></path>
<path d="M 534 386 L 559 493 L 647 496 Z" stroke="#854a2a" fill="#854a2a" style="animation-play-state:paused" ></path>
<path d="M 647 496 L 738 568 L 759 494 Z" stroke="#663521" fill="#663521" style="animation-play-state:paused" ></path>
<path d="M 536 92 L 514 177 L 643 168 Z" stroke="#d88c51" fill="#d88c51" style="animation-play-state:paused" ></path>
<path d="M 643 168 L 514 177 L 544 288 Z" stroke="#c47b47" fill="#c47b47" style="animation-play-state:paused" ></path>
<path d="M 544 288 L 420 369 L 534 386 Z" stroke="#a8663a" fill="#a8663a" style="animation-play-state:paused" ></path>
<path d="M 741 85 L 655 86 L 741 154 Z" stroke="#d4894f" fill="#d4894f" style="animation-play-state:paused" ></path>
<path d="M 741 154 L 655 86 L 643 168 Z" stroke="#ce844c" fill="#ce844c" style="animation-play-state:paused" ></path>
<path d="M 953 394 L 922 269 L 815 372 Z" stroke="#764023" fill="#764023" style="animation-play-state:paused" ></path>
<path d="M 832 269 L 922 269 L 846 172 Z" stroke="#9b5b34" fill="#9b5b34" style="animation-play-state:paused" ></path>
<path d="M 846 172 L 741 85 L 741 154 Z" stroke="#c47c48" fill="#c47c48" style="animation-play-state:paused" ></path>
<path d="M 619 567 L 738 568 L 647 496 Z" stroke="#6a3721" fill="#6a3721" style="animation-play-state:paused" ></path>
<path d="M 759 494 L 861 583 L 824 484 Z" stroke="#572d1e" fill="#572d1e" style="animation-play-state:paused" ></path>
<path d="M 559 493 L 619 567 L 647 496 Z" stroke="#763f23" fill="#763f23" style="animation-play-state:paused" ></path>
<path d="M 957 487 L 953 394 L 824 484 Z" stroke="#582d1f" fill="#582d1f" style="animation-play-state:paused" ></path>
<path d="M 824 484 L 953 394 L 815 372 Z" stroke="#673621" fill="#673621" style="animation-play-state:paused" ></path>
<path d="M 435 259 L 420 369 L 544 288 Z" stroke="#b77141" fill="#b77141" style="animation-play-state:paused" ></path>
<path d="M 534 386 L 439 471 L 559 493 Z" stroke="#91542f" fill="#91542f" style="animation-play-state:paused" ></path>
<path d="M 559 493 L 540 586 L 619 567 Z" stroke="#784023" fill="#784023" style="animation-play-state:paused" ></path>
<path d="M 446 206 L 435 259 L 544 288 Z" stroke="#c47c48" fill="#c47c48" style="animation-play-state:paused" ></path>
<path d="M 434 65 L 446 206 L 514 177 Z" stroke="#da965b" fill="#da965b" style="animation-play-state:paused" ></path>
<path d="M 514 177 L 446 206 L 544 288 Z" stroke="#c87f49" fill="#c87f49" style="animation-play-state:paused" ></path>
<path d="M 922 269 L 926 175 L 846 172 Z" stroke="#a26137" fill="#a26137" style="animation-play-state:paused" ></path>
<path d="M 846 172 L 843 82 L 741 85 Z" stroke="#c9804a" fill="#c9804a" style="animation-play-state:paused" ></path>
<path d="M 1029 274 L 926 175 L 922 269 Z" stroke="#91542f" fill="#91542f" style="animation-play-state:paused" ></path>
<path d="M 935 61 L 843 82 L 846 172 Z" stroke="#c67e49" fill="#c67e49" style="animation-play-state:paused" ></path>
<path d="M 638 -14 L 536 92 L 655 86 Z" stroke="#dda46a" fill="#dda46a" style="animation-play-state:paused" ></path>
<path d="M 655 86 L 536 92 L 643 168 Z" stroke="#d99055" fill="#d99055" style="animation-play-state:paused" ></path>
<path d="M 638 -14 L 655 86 L 741 85 Z" stroke="#dc9e63" fill="#dc9e63" style="animation-play-state:paused" ></path>
<path d="M 439 471 L 540 586 L 559 493 Z" stroke="#864b2a" fill="#864b2a" style="animation-play-state:paused" ></path>
<path d="M 819 657 L 861 583 L 738 568 Z" stroke="#4c271c" fill="#4c271c" style="animation-play-state:paused" ></path>
<path d="M 364 396 L 439 471 L 420 369 Z" stroke="#a8653a" fill="#a8653a" style="animation-play-state:paused" ></path>
<path d="M 420 369 L 439 471 L 534 386 Z" stroke="#a05f36" fill="#a05f36" style="animation-play-state:paused" ></path>
<path d="M 913 565 L 957 487 L 824 484 Z" stroke="#4d271c" fill="#4d271c" style="animation-play-state:paused" ></path>
<path d="M 751 678 L 738 568 L 647 690 Z" stroke="#582d1f" fill="#582d1f" style="animation-play-state:paused" ></path>
<path d="M 738 568 L 861 583 L 759 494 Z" stroke="#572d1e" fill="#572d1e" style="animation-play-state:paused" ></path>
<path d="M 1045 486 L 1033 364 L 953 394 Z" stroke="#572c1e" fill="#572c1e" style="animation-play-state:paused" ></path>
<path d="M 953 394 L 1033 364 L 922 269 Z" stroke="#703b22" fill="#703b22" style="animation-play-state:paused" ></path>
<path d="M 861 583 L 913 565 L 824 484 Z" stroke="#4c261c" fill="#4c261c" style="animation-play-state:paused" ></path>
<path d="M 957 487 L 1045 486 L 953 394 Z" stroke="#4f281d" fill="#4f281d" style="animation-play-state:paused" ></path>
<path d="M 346 188 L 346 281 L 435 259 Z" stroke="#d4884f" fill="#d4884f" style="animation-play-state:paused" ></path>
<path d="M 435 259 L 346 281 L 420 369 Z" stroke="#c17946" fill="#c17946" style="animation-play-state:paused" ></path>
<path d="M 346 188 L 435 259 L 446 206 Z" stroke="#d68a50" fill="#d68a50" style="animation-play-state:paused" ></path>
<path d="M 731 -32 L 638 -14 L 741 85 Z" stroke="#dea970" fill="#dea970" style="animation-play-state:paused" ></path>
<path d="M 1033 364 L 1029 274 L 922 269 Z" stroke="#794224" fill="#794224" style="animation-play-state:paused" ></path>
<path d="M 926 175 L 935 61 L 846 172 Z" stroke="#b97342" fill="#b97342" style="animation-play-state:paused" ></path>
<path d="M 1018 174 L 935 61 L 926 175 Z" stroke="#b46f40" fill="#b46f40" style="animation-play-state:paused" ></path>
<path d="M 850 -23 L 731 -32 L 741 85 Z" stroke="#dda46a" fill="#dda46a" style="animation-play-state:paused" ></path>
<path d="M 346 281 L 364 396 L 420 369 Z" stroke="#ba7343" fill="#ba7343" style="animation-play-state:paused" ></path>
<path d="M 439 471 L 464 605 L 540 586 Z" stroke="#864b2a" fill="#864b2a" style="animation-play-state:paused" ></path>
<path d="M 850 -23 L 741 85 L 843 82 Z" stroke="#da9459" fill="#da9459" style="animation-play-state:paused" ></path>
<path d="M 647 690 L 738 568 L 619 567 Z" stroke="#623320" fill="#623320" style="animation-play-state:paused" ></path>
<path d="M 861 583 L 928 696 L 913 565 Z" stroke="#3c1e18" fill="#3c1e18" style="animation-play-state:paused" ></path>
<path d="M 530 -32 L 434 65 L 536 92 Z" stroke="#e1b37c" fill="#e1b37c" style="animation-play-state:paused" ></path>
<path d="M 536 92 L 434 65 L 514 177 Z" stroke="#dc9e64" fill="#dc9e64" style="animation-play-state:paused" ></path>
<path d="M 352 583 L 464 605 L 439 471 Z" stroke="#90532f" fill="#90532f" style="animation-play-state:paused" ></path>
<path d="M 550 671 L 647 690 L 619 567 Z" stroke="#6a3721" fill="#6a3721" style="animation-play-state:paused" ></path>
<path d="M 362 87 L 346 188 L 446 206 Z" stroke="#db9d62" fill="#db9d62" style="animation-play-state:paused" ></path>
<path d="M 237 470 L 329 488 L 364 396 Z" stroke="#b06c3e" fill="#b06c3e" style="animation-play-state:paused" ></path>
<path d="M 935 61 L 850 -23 L 843 82 Z" stroke="#d99156" fill="#d99156" style="animation-play-state:paused" ></path>
<path d="M 1029 274 L 1018 174 L 926 175 Z" stroke="#995a33" fill="#995a33" style="animation-play-state:paused" ></path>
<path d="M 751 678 L 819 657 L 738 568 Z" stroke="#4f281d" fill="#4f281d" style="animation-play-state:paused" ></path>
<path d="M 550 671 L 619 567 L 540 586 Z" stroke="#723d22" fill="#723d22" style="animation-play-state:paused" ></path>
<path d="M 751 678 L 928 696 L 819 657 Z" stroke="#42211a" fill="#42211a" style="animation-play-state:paused" ></path>
<path d="M 1028 563 L 957 487 L 913 565 Z" stroke="#3e2019" fill="#3e2019" style="animation-play-state:paused" ></path>
<path d="M 1028 563 L 1045 486 L 957 487 Z" stroke="#3e1f19" fill="#3e1f19" style="animation-play-state:paused" ></path>
<path d="M 1033 364 L 1127 363 L 1029 274 Z" stroke="#693721" fill="#693721" style="animation-play-state:paused" ></path>
<path d="M 635 -122 L 530 -32 L 638 -14 Z" stroke="#e6c798" fill="#e6c798" style="animation-play-state:paused" ></path>
<path d="M 638 -14 L 530 -32 L 536 92 Z" stroke="#e1b47e" fill="#e1b47e" style="animation-play-state:paused" ></path>
<path d="M 464 605 L 550 671 L 540 586 Z" stroke="#794224" fill="#794224" style="animation-play-state:paused" ></path>
<path d="M 364 396 L 329 488 L 439 471 Z" stroke="#a56339" fill="#a56339" style="animation-play-state:paused" ></path>
<path d="M 464 605 L 439 678 L 550 671 Z" stroke="#7d4426" fill="#7d4426" style="animation-play-state:paused" ></path>
<path d="M 244 276 L 364 396 L 346 281 Z" stroke="#c9804a" fill="#c9804a" style="animation-play-state:paused" ></path>
<path d="M 336 -15 L 362 87 L 434 65 Z" stroke="#e4be8b" fill="#e4be8b" style="animation-play-state:paused" ></path>
<path d="M 434 65 L 362 87 L 446 206 Z" stroke="#dda56b" fill="#dda56b" style="animation-play-state:paused" ></path>
<path d="M 346 188 L 244 276 L 346 281 Z" stroke="#d98f54" fill="#d98f54" style="animation-play-state:paused" ></path>
<path d="M 935 61 L 934 -2 L 850 -23 Z" stroke="#db995e" fill="#db995e" style="animation-play-state:paused" ></path>
<path d="M 850 -23 L 758 -118 L 731 -32 Z" stroke="#e3ba86" fill="#e3ba86" style="animation-play-state:paused" ></path>
<path d="M 1044 75 L 934 -2 L 935 61 Z" stroke="#d5894f" fill="#d5894f" style="animation-play-state:paused" ></path>
<path d="M 1126 170 L 1044 75 L 1018 174 Z" stroke="#ab683c" fill="#ab683c" style="animation-play-state:paused" ></path>
<path d="M 1018 174 L 1044 75 L 935 61 Z" stroke="#bd7644" fill="#bd7644" style="animation-play-state:paused" ></path>
<path d="M 1126 170 L 1018 174 L 1029 274 Z" stroke="#945631" fill="#945631" style="animation-play-state:paused" ></path>
<path d="M 1041 660 L 1028 563 L 913 565 Z" stroke="#301915" fill="#301915" style="animation-play-state:paused" ></path>
<path d="M 329 488 L 352 583 L 439 471 Z" stroke="#9c5c35" fill="#9c5c35" style="animation-play-state:paused" ></path>
<path d="M 860 -102 L 758 -118 L 850 -23 Z" stroke="#e4bf8c" fill="#e4bf8c" style="animation-play-state:paused" ></path>
<path d="M 731 -32 L 635 -122 L 638 -14 Z" stroke="#e5c290" fill="#e5c290" style="animation-play-state:paused" ></path>
<path d="M 1153 484 L 1127 363 L 1045 486 Z" stroke="#43221a" fill="#43221a" style="animation-play-state:paused" ></path>
<path d="M 1045 486 L 1127 363 L 1033 364 Z" stroke="#532b1e" fill="#532b1e" style="animation-play-state:paused" ></path>
<path d="M 647 690 L 928 696 L 751 678 Z" stroke="#4b261c" fill="#4b261c" style="animation-play-state:paused" ></path>
<path d="M 819 657 L 928 696 L 861 583 Z" stroke="#3e1f19" fill="#3e1f19" style="animation-play-state:paused" ></path>
<path d="M 352 583 L 439 678 L 464 605 Z" stroke="#8a4e2c" fill="#8a4e2c" style="animation-play-state:paused" ></path>
<path d="M 550 671 L 439 678 L 647 690 Z" stroke="#723c22" fill="#723c22" style="animation-play-state:paused" ></path>
<path d="M 1127 363 L 1129 264 L 1029 274 Z" stroke="#713c22" fill="#713c22" style="animation-play-state:paused" ></path>
<path d="M 235 184 L 244 276 L 346 188 Z" stroke="#db9c61" fill="#db9c61" style="animation-play-state:paused" ></path>
<path d="M 329 488 L 230 591 L 352 583 Z" stroke="#a36238" fill="#a36238" style="animation-play-state:paused" ></path>
<path d="M 431 -118 L 413 -42 L 530 -32 Z" stroke="#ebd6ad" fill="#ebd6ad" style="animation-play-state:paused" ></path>
<path d="M 530 -32 L 413 -42 L 434 65 Z" stroke="#e5c493" fill="#e5c493" style="animation-play-state:paused" ></path>
<path d="M 758 -118 L 635 -122 L 731 -32 Z" stroke="#e7ca9c" fill="#e7ca9c" style="animation-play-state:paused" ></path>
<path d="M 1129 264 L 1126 170 L 1029 274 Z" stroke="#874c2a" fill="#874c2a" style="animation-play-state:paused" ></path>
<path d="M 943 -119 L 860 -102 L 934 -2 Z" stroke="#e2b782" fill="#e2b782" style="animation-play-state:paused" ></path>
<path d="M 934 -2 L 860 -102 L 850 -23 Z" stroke="#dfae76" fill="#dfae76" style="animation-play-state:paused" ></path>
<path d="M 758 -118 L 860 -102 L 635 -122 Z" stroke="#e9cfa3" fill="#e9cfa3" style="animation-play-state:paused" ></path>
<path d="M 244 276 L 221 381 L 364 396 Z" stroke="#c87f4a" fill="#c87f4a" style="animation-play-state:paused" ></path>
<path d="M 635 -122 L 551 -131 L 530 -32 Z" stroke="#ebd6ad" fill="#ebd6ad" style="animation-play-state:paused" ></path>
<path d="M 1028 563 L 1153 484 L 1045 486 Z" stroke="#361b16" fill="#361b16" style="animation-play-state:paused" ></path>
<path d="M 1127 363 L 1221 266 L 1129 264 Z" stroke="#6d3a22" fill="#6d3a22" style="animation-play-state:paused" ></path>
<path d="M 1130 575 L 1153 484 L 1028 563 Z" stroke="#2b1613" fill="#2b1613" style="animation-play-state:paused" ></path>
<path d="M 362 87 L 235 184 L 346 188 Z" stroke="#dea86e" fill="#dea86e" style="animation-play-state:paused" ></path>
<path d="M 126 280 L 144 382 L 221 381 Z" stroke="#d88e53" fill="#d88e53" style="animation-play-state:paused" ></path>
<path d="M 238 75 L 235 184 L 362 87 Z" stroke="#e1b680" fill="#e1b680" style="animation-play-state:paused" ></path>
<path d="M 221 381 L 237 470 L 364 396 Z" stroke="#bc7544" fill="#bc7544" style="animation-play-state:paused" ></path>
<path d="M 928 696 L 1041 660 L 913 565 Z" stroke="#301915" fill="#301915" style="animation-play-state:paused" ></path>
<path d="M 328 -133 L 336 -15 L 413 -42 Z" stroke="#efdebb" fill="#efdebb" style="animation-play-state:paused" ></path>
<path d="M 413 -42 L 336 -15 L 434 65 Z" stroke="#e7c899" fill="#e7c899" style="animation-play-state:paused" ></path>
<path d="M 1141 80 L 1033 -20 L 1044 75 Z" stroke="#ce844c" fill="#ce844c" style="animation-play-state:paused" ></path>
<path d="M 1044 75 L 1033 -20 L 934 -2 Z" stroke="#d99055" fill="#d99055" style="animation-play-state:paused" ></path>
<path d="M 243 695 L 333 679 L 352 583 Z" stroke="#9b5b34" fill="#9b5b34" style="animation-play-state:paused" ></path>
<path d="M 352 583 L 333 679 L 439 678 Z" stroke="#90532f" fill="#90532f" style="animation-play-state:paused" ></path>
<path d="M 1126 170 L 1141 80 L 1044 75 Z" stroke="#b46f40" fill="#b46f40" style="animation-play-state:paused" ></path>
<path d="M 1238 182 L 1141 80 L 1126 170 Z" stroke="#a36238" fill="#a36238" style="animation-play-state:paused" ></path>
<path d="M 1221 266 L 1126 170 L 1129 264 Z" stroke="#834929" fill="#834929" style="animation-play-state:paused" ></path>
<path d="M 1045 -113 L 943 -119 L 934 -2 Z" stroke="#e1b57f" fill="#e1b57f" style="animation-play-state:paused" ></path>
<path d="M 860 -102 L 943 -119 L 635 -122 Z" stroke="#e8cb9d" fill="#e8cb9d" style="animation-play-state:paused" ></path>
<path d="M 635 -122 L 431 -118 L 551 -131 Z" stroke="#f0e1bf" fill="#f0e1bf" style="animation-play-state:paused" ></path>
<path d="M 551 -131 L 431 -118 L 530 -32 Z" stroke="#eddbb5" fill="#eddbb5" style="animation-play-state:paused" ></path>
<path d="M 1129 681 L 1130 575 L 1028 563 Z" stroke="#20110d" fill="#20110d" style="animation-play-state:paused" ></path>
<path d="M 237 470 L 230 591 L 329 488 Z" stroke="#ae6a3d" fill="#ae6a3d" style="animation-play-state:paused" ></path>
<path d="M 140 503 L 230 591 L 237 470 Z" stroke="#b87242" fill="#b87242" style="animation-play-state:paused" ></path>
<path d="M 222 -38 L 238 75 L 336 -15 Z" stroke="#ebd4aa" fill="#ebd4aa" style="animation-play-state:paused" ></path>
<path d="M 336 -15 L 238 75 L 362 87 Z" stroke="#e5c493" fill="#e5c493" style="animation-play-state:paused" ></path>
<path d="M 126 280 L 221 381 L 244 276 Z" stroke="#d99155" fill="#d99155" style="animation-play-state:paused" ></path>
<path d="M 1235 397 L 1127 363 L 1153 484 Z" stroke="#46241b" fill="#46241b" style="animation-play-state:paused" ></path>
<path d="M 1235 397 L 1221 266 L 1127 363 Z" stroke="#5c2f1f" fill="#5c2f1f" style="animation-play-state:paused" ></path>
<path d="M 126 280 L 244 276 L 235 184 Z" stroke="#dc9f64" fill="#dc9f64" style="animation-play-state:paused" ></path>
<path d="M 221 381 L 144 382 L 237 470 Z" stroke="#c97f4a" fill="#c97f4a" style="animation-play-state:paused" ></path>
<path d="M 1221 266 L 1238 182 L 1126 170 Z" stroke="#8b4f2c" fill="#8b4f2c" style="animation-play-state:paused" ></path>
<path d="M 1141 80 L 1123 -33 L 1033 -20 Z" stroke="#d88e53" fill="#d88e53" style="animation-play-state:paused" ></path>
<path d="M 1033 -20 L 1045 -113 L 934 -2 Z" stroke="#dea76e" fill="#dea76e" style="animation-play-state:paused" ></path>
<path d="M 1252 482 L 1235 397 L 1153 484 Z" stroke="#361c17" fill="#361c17" style="animation-play-state:paused" ></path>
<path d="M 1221 266 L 1346 167 L 1238 182 Z" stroke="#874c2b" fill="#874c2b" style="animation-play-state:paused" ></path>
<path d="M 114 159 L 126 280 L 235 184 Z" stroke="#dfae76" fill="#dfae76" style="animation-play-state:paused" ></path>
<path d="M 1226 -36 L 1123 -33 L 1141 80 Z" stroke="#d88d52" fill="#d88d52" style="animation-play-state:paused" ></path>
<path d="M 1041 660 L 1129 681 L 1028 563 Z" stroke="#21110e" fill="#21110e" style="animation-play-state:paused" ></path>
<path d="M 1242 562 L 1252 482 L 1153 484 Z" stroke="#261411" fill="#261411" style="animation-play-state:paused" ></path>
<path d="M 928 696 L 1129 681 L 1041 660 Z" stroke="#22120e" fill="#22120e" style="animation-play-state:paused" ></path>
<path d="M 1123 -33 L 1045 -113 L 1033 -20 Z" stroke="#dea86e" fill="#dea86e" style="animation-play-state:paused" ></path>
<path d="M 136 566 L 140 503 L 36 476 Z" stroke="#ca804a" fill="#ca804a" style="animation-play-state:paused" ></path>
<path d="M 144 382 L 140 503 L 237 470 Z" stroke="#c67e49" fill="#c67e49" style="animation-play-state:paused" ></path>
<path d="M 431 -118 L 328 -133 L 413 -42 Z" stroke="#f2e5c6" fill="#f2e5c6" style="animation-play-state:paused" ></path>
<path d="M 635 -122 L 328 -133 L 431 -118 Z" stroke="#f3e7c8" fill="#f3e7c8" style="animation-play-state:paused" ></path>
<path d="M 1242 562 L 1153 484 L 1130 575 Z" stroke="#23120f" fill="#23120f" style="animation-play-state:paused" ></path>
<path d="M 134 665 L 243 695 L 230 591 Z" stroke="#ae6a3d" fill="#ae6a3d" style="animation-play-state:paused" ></path>
<path d="M 230 591 L 243 695 L 352 583 Z" stroke="#a26138" fill="#a26138" style="animation-play-state:paused" ></path>
<path d="M 333 679 L 243 695 L 439 678 Z" stroke="#955631" fill="#955631" style="animation-play-state:paused" ></path>
<path d="M 439 678 L 49 680 L 647 690 Z" stroke="#8e512e" fill="#8e512e" style="animation-play-state:paused" ></path>
<path d="M 149 77 L 114 159 L 235 184 Z" stroke="#e3bd89" fill="#e3bd89" style="animation-play-state:paused" ></path>
<path d="M 149 77 L 235 184 L 238 75 Z" stroke="#e4bf8c" fill="#e4bf8c" style="animation-play-state:paused" ></path>
<path d="M 235 -109 L 222 -38 L 336 -15 Z" stroke="#f2e4c5" fill="#f2e4c5" style="animation-play-state:paused" ></path>
<path d="M 1236 684 L 1242 562 L 1130 575 Z" stroke="#1d0e0b" fill="#1d0e0b" style="animation-play-state:paused" ></path>
<path d="M 133 -22 L 149 77 L 238 75 Z" stroke="#ebd4ab" fill="#ebd4ab" style="animation-play-state:paused" ></path>
<path d="M 1238 182 L 1218 81 L 1141 80 Z" stroke="#ad693c" fill="#ad693c" style="animation-play-state:paused" ></path>
<path d="M 1318 57 L 1218 81 L 1238 182 Z" stroke="#ad693c" fill="#ad693c" style="animation-play-state:paused" ></path>
<path d="M 140 503 L 136 566 L 230 591 Z" stroke="#ba7443" fill="#ba7443" style="animation-play-state:paused" ></path>
<path d="M 36 476 L 140 503 L 144 382 Z" stroke="#d1864e" fill="#d1864e" style="animation-play-state:paused" ></path>
<path d="M 38 387 L 144 382 L 126 280 Z" stroke="#da985c" fill="#da985c" style="animation-play-state:paused" ></path>
<path d="M 328 -133 L 235 -109 L 336 -15 Z" stroke="#f4e7ca" fill="#f4e7ca" style="animation-play-state:paused" ></path>
<path d="M 222 -38 L 133 -22 L 238 75 Z" stroke="#eedbb6" fill="#eedbb6" style="animation-play-state:paused" ></path>
<path d="M 1226 -36 L 1133 -106 L 1123 -33 Z" stroke="#dda46b" fill="#dda46b" style="animation-play-state:paused" ></path>
<path d="M 1123 -33 L 1133 -106 L 1045 -113 Z" stroke="#e0b179" fill="#e0b179" style="animation-play-state:paused" ></path>
<path d="M 1045 -113 L 1133 -106 L 943 -119 Z" stroke="#e3be8a" fill="#e3be8a" style="animation-play-state:paused" ></path>
<path d="M 943 -119 L 1245 -120 L 635 -122 Z" stroke="#e6c595" fill="#e6c595" style="animation-play-state:paused" ></path>
<path d="M 1343 -32 L 1226 -36 L 1218 81 Z" stroke="#d4894f" fill="#d4894f" style="animation-play-state:paused" ></path>
<path d="M 1218 81 L 1226 -36 L 1141 80 Z" stroke="#c87f4a" fill="#c87f4a" style="animation-play-state:paused" ></path>
<path d="M 1345 471 L 1324 364 L 1235 397 Z" stroke="#3d1f18" fill="#3d1f18" style="animation-play-state:paused" ></path>
<path d="M 1235 397 L 1324 364 L 1221 266 Z" stroke="#572d1e" fill="#572d1e" style="animation-play-state:paused" ></path>
<path d="M 1345 471 L 1235 397 L 1252 482 Z" stroke="#321a15" fill="#321a15" style="animation-play-state:paused" ></path>
<path d="M 137 -125 L 133 -22 L 222 -38 Z" stroke="#f6e9ce" fill="#f6e9ce" style="animation-play-state:paused" ></path>
<path d="M 38 65 L 27 177 L 114 159 Z" stroke="#e8cb9e" fill="#e8cb9e" style="animation-play-state:paused" ></path>
<path d="M 27 272 L 126 280 L 27 177 Z" stroke="#e1b37d" fill="#e1b37d" style="animation-play-state:paused" ></path>
<path d="M 27 272 L 38 387 L 126 280 Z" stroke="#dda56b" fill="#dda56b" style="animation-play-state:paused" ></path>
<path d="M 27 177 L 126 280 L 114 159 Z" stroke="#e2b882" fill="#e2b882" style="animation-play-state:paused" ></path>
<path d="M 1129 681 L 1236 684 L 1130 575 Z" stroke="#1d0e0b" fill="#1d0e0b" style="animation-play-state:paused" ></path>
<path d="M 1325 583 L 1345 471 L 1252 482 Z" stroke="#1d0e0b" fill="#1d0e0b" style="animation-play-state:paused" ></path>
<path d="M 928 696 L 1236 684 L 1129 681 Z" stroke="#1d0e0b" fill="#1d0e0b" style="animation-play-state:paused" ></path>
<path d="M 647 690 L 1236 684 L 928 696 Z" stroke="#301915" fill="#301915" style="animation-play-state:paused" ></path>
<path d="M 1324 364 L 1339 282 L 1221 266 Z" stroke="#633320" fill="#633320" style="animation-play-state:paused" ></path>
<path d="M 32 592 L 134 665 L 136 566 Z" stroke="#c27a46" fill="#c27a46" style="animation-play-state:paused" ></path>
<path d="M 136 566 L 134 665 L 230 591 Z" stroke="#b67141" fill="#b67141" style="animation-play-state:paused" ></path>
<path d="M 1339 282 L 1346 167 L 1221 266 Z" stroke="#794224" fill="#794224" style="animation-play-state:paused" ></path>
<path d="M 1325 583 L 1252 482 L 1242 562 Z" stroke="#1d0e0b" fill="#1d0e0b" style="animation-play-state:paused" ></path>
<path d="M 1464 397 L 1455 285 L 1339 282 Z" stroke="#572c1e" fill="#572c1e" style="animation-play-state:paused" ></path>
<path d="M 38 65 L 114 159 L 149 77 Z" stroke="#e9cea2" fill="#e9cea2" style="animation-play-state:paused" ></path>
<path d="M -60 500 L 36 476 L 38 387 Z" stroke="#da965b" fill="#da965b" style="animation-play-state:paused" ></path>
<path d="M 38 387 L 36 476 L 144 382 Z" stroke="#d99156" fill="#d99156" style="animation-play-state:paused" ></path>
<path d="M 1236 684 L 1325 583 L 1242 562 Z" stroke="#1d0e0b" fill="#1d0e0b" style="animation-play-state:paused" ></path>
<path d="M 1346 167 L 1318 57 L 1238 182 Z" stroke="#a05f36" fill="#a05f36" style="animation-play-state:paused" ></path>
<path d="M 36 476 L 32 592 L 136 566 Z" stroke="#cd834c" fill="#cd834c" style="animation-play-state:paused" ></path>
<path d="M 1343 -32 L 1245 -120 L 1226 -36 Z" stroke="#dda268" fill="#dda268" style="animation-play-state:paused" ></path>
<path d="M 1226 -36 L 1245 -120 L 1133 -106 Z" stroke="#dfae75" fill="#dfae75" style="animation-play-state:paused" ></path>
<path d="M 1133 -106 L 1245 -120 L 943 -119 Z" stroke="#e3bb87" fill="#e3bb87" style="animation-play-state:paused" ></path>
<path d="M 235 -109 L 137 -125 L 222 -38 Z" stroke="#f7e9d0" fill="#f7e9d0" style="animation-play-state:paused" ></path>
<path d="M 133 -22 L 38 65 L 149 77 Z" stroke="#eedcb7" fill="#eedcb7" style="animation-play-state:paused" ></path>
<path d="M 328 -133 L 137 -125 L 235 -109 Z" stroke="#f8ead3" fill="#f8ead3" style="animation-play-state:paused" ></path>
<path d="M -70 360 L 38 387 L 27 272 Z" stroke="#dea970" fill="#dea970" style="animation-play-state:paused" ></path>
<path d="M -70 360 L -60 500 L 38 387 Z" stroke="#dca267" fill="#dca267" style="animation-play-state:paused" ></path>
<path d="M 36 476 L -60 500 L 32 592 Z" stroke="#d88e53" fill="#d88e53" style="animation-play-state:paused" ></path>
<path d="M 24 -32 L 38 65 L 133 -22 Z" stroke="#f4e7ca" fill="#f4e7ca" style="animation-play-state:paused" ></path>
<path d="M 1454 -24 L 1343 -32 L 1318 57 Z" stroke="#d2874e" fill="#d2874e" style="animation-play-state:paused" ></path>
<path d="M 1318 57 L 1343 -32 L 1218 81 Z" stroke="#c77e49" fill="#c77e49" style="animation-play-state:paused" ></path>
<path d="M 1443 73 L 1318 57 L 1346 167 Z" stroke="#ab683c" fill="#ab683c" style="animation-play-state:paused" ></path>
<path d="M 1236 684 L 1344 680 L 1325 583 Z" stroke="#1d0e0b" fill="#1d0e0b" style="animation-play-state:paused" ></path>
<path d="M 1464 397 L 1324 364 L 1345 471 Z" stroke="#381d17" fill="#381d17" style="animation-play-state:paused" ></path>
<path d="M 1464 397 L 1339 282 L 1324 364 Z" stroke="#4f281d" fill="#4f281d" style="animation-play-state:paused" ></path>
<path d="M 56 -121 L 24 -32 L 133 -22 Z" stroke="#f8ead2" fill="#f8ead2" style="animation-play-state:paused" ></path>
<path d="M 32 592 L 49 680 L 134 665 Z" stroke="#c57c48" fill="#c57c48" style="animation-play-state:paused" ></path>
<path d="M 134 665 L 49 680 L 243 695 Z" stroke="#b77241" fill="#b77241" style="animation-play-state:paused" ></path>
<path d="M 243 695 L 49 680 L 439 678 Z" stroke="#a56339" fill="#a56339" style="animation-play-state:paused" ></path>
<path d="M 1464 397 L 1345 471 L 1453 487 Z" stroke="#281512" fill="#281512" style="animation-play-state:paused" ></path>
<path d="M 1339 282 L 1444 187 L 1346 167 Z" stroke="#804727" fill="#804727" style="animation-play-state:paused" ></path>
<path d="M -70 360 L 27 272 L -64 280 Z" stroke="#e1b57f" fill="#e1b57f" style="animation-play-state:paused" ></path>
<path d="M 32 592 L -63 667 L 49 680 Z" stroke="#d1864d" fill="#d1864d" style="animation-play-state:paused" ></path>
<path d="M 27 272 L 27 177 L -64 280 Z" stroke="#e3bc88" fill="#e3bc88" style="animation-play-state:paused" ></path>
<path d="M 1453 487 L 1345 471 L 1428 579 Z" stroke="#1d0e0b" fill="#1d0e0b" style="animation-play-state:paused" ></path>
<path d="M 1455 285 L 1444 187 L 1339 282 Z" stroke="#703c22" fill="#703c22" style="animation-play-state:paused" ></path>
<path d="M -64 280 L 27 177 L -83 176 Z" stroke="#e6c798" fill="#e6c798" style="animation-play-state:paused" ></path>
<path d="M -83 176 L 27 177 L 38 65 Z" stroke="#ead2a8" fill="#ead2a8" style="animation-play-state:paused" ></path>
<path d="M 1428 579 L 1345 471 L 1325 583 Z" stroke="#1d0e0b" fill="#1d0e0b" style="animation-play-state:paused" ></path>
<path d="M 1344 680 L 1428 579 L 1325 583 Z" stroke="#1d0e0b" fill="#1d0e0b" style="animation-play-state:paused" ></path>
<path d="M -71 59 L -83 176 L 38 65 Z" stroke="#efdfbb" fill="#efdfbb" style="animation-play-state:paused" ></path>
<path d="M 1454 -24 L 1339 -120 L 1343 -32 Z" stroke="#dc9d62" fill="#dc9d62" style="animation-play-state:paused" ></path>
<path d="M 1343 -32 L 1339 -120 L 1245 -120 Z" stroke="#dfab73" fill="#dfab73" style="animation-play-state:paused" ></path>
<path d="M 137 -125 L 56 -121 L 133 -22 Z" stroke="#f9ebd4" fill="#f9ebd4" style="animation-play-state:paused" ></path>
<path d="M -71 -20 L -71 59 L 38 65 Z" stroke="#f5e8cc" fill="#f5e8cc" style="animation-play-state:paused" ></path>
<path d="M 328 -133 L 56 -121 L 137 -125 Z" stroke="#f9ecd6" fill="#f9ecd6" style="animation-play-state:paused" ></path>
<path d="M -153 -123 L 56 -121 L 328 -133 Z" stroke="#fbeddb" fill="#fbeddb" style="animation-play-state:paused" ></path>
<path d="M 1548 176 L 1443 73 L 1444 187 Z" stroke="#975832" fill="#975832" style="animation-play-state:paused" ></path>
<path d="M 1444 187 L 1443 73 L 1346 167 Z" stroke="#995a33" fill="#995a33" style="animation-play-state:paused" ></path>
<path d="M -163 496 L -68 577 L -60 500 Z" stroke="#dc9f65" fill="#dc9f65" style="animation-play-state:paused" ></path>
<path d="M -60 500 L -68 577 L 32 592 Z" stroke="#d99156" fill="#d99156" style="animation-play-state:paused" ></path>
<path d="M -71 -20 L 38 65 L 24 -32 Z" stroke="#f6e9ce" fill="#f6e9ce" style="animation-play-state:paused" ></path>
<path d="M -181 265 L -70 360 L -64 280 Z" stroke="#e4bf8c" fill="#e4bf8c" style="animation-play-state:paused" ></path>
<path d="M 1443 73 L 1454 -24 L 1318 57 Z" stroke="#c37b47" fill="#c37b47" style="animation-play-state:paused" ></path>
<path d="M -43 -104 L -71 -20 L 24 -32 Z" stroke="#f9ecd7" fill="#f9ecd7" style="animation-play-state:paused" ></path>
<path d="M 1236 684 L 1447 681 L 1344 680 Z" stroke="#1d0e0b" fill="#1d0e0b" style="animation-play-state:paused" ></path>
<path d="M 1344 680 L 1447 681 L 1428 579 Z" stroke="#1d0e0b" fill="#1d0e0b" style="animation-play-state:paused" ></path>
<path d="M 1543 580 L 1535 463 L 1453 487 Z" stroke="#1d0e0b" fill="#1d0e0b" style="animation-play-state:paused" ></path>
<path d="M 1535 463 L 1536 376 L 1464 397 Z" stroke="#331a16" fill="#331a16" style="animation-play-state:paused" ></path>
<path d="M 647 690 L 1447 681 L 1236 684 Z" stroke="#1d0e0b" fill="#1d0e0b" style="animation-play-state:paused" ></path>
<path d="M 1535 463 L 1464 397 L 1453 487 Z" stroke="#261411" fill="#261411" style="animation-play-state:paused" ></path>
<path d="M 1464 397 L 1536 376 L 1455 285 Z" stroke="#49251b" fill="#49251b" style="animation-play-state:paused" ></path>
<path d="M 1455 285 L 1548 176 L 1444 187 Z" stroke="#7c4325" fill="#7c4325" style="animation-play-state:paused" ></path>
<path d="M 1443 73 L 1550 77 L 1454 -24 Z" stroke="#bf7845" fill="#bf7845" style="animation-play-state:paused" ></path>
<path d="M -68 577 L -63 667 L 32 592 Z" stroke="#d88d52" fill="#d88d52" style="animation-play-state:paused" ></path>
<path d="M 1543 580 L 1453 487 L 1428 579 Z" stroke="#1d0e0b" fill="#1d0e0b" style="animation-play-state:paused" ></path>
<path d="M 1535 463 L 1554 292 L 1536 376 Z" stroke="#3f2019" fill="#3f2019" style="animation-play-state:paused" ></path>
<path d="M 1536 376 L 1554 292 L 1455 285 Z" stroke="#552c1e" fill="#552c1e" style="animation-play-state:paused" ></path>
<path d="M 1554 292 L 1548 176 L 1455 285 Z" stroke="#6e3a22" fill="#6e3a22" style="animation-play-state:paused" ></path>
<path d="M 56 -121 L -43 -104 L 24 -32 Z" stroke="#faecd9" fill="#faecd9" style="animation-play-state:paused" ></path>
<path d="M -64 280 L -83 176 L -182 153 Z" stroke="#ead2a8" fill="#ead2a8" style="animation-play-state:paused" ></path>
<path d="M -70 360 L -163 496 L -60 500 Z" stroke="#dea76e" fill="#dea76e" style="animation-play-state:paused" ></path>
<path d="M -68 577 L -170 568 L -63 667 Z" stroke="#db9a5f" fill="#db9a5f" style="animation-play-state:paused" ></path>
<path d="M -163 362 L -163 496 L -70 360 Z" stroke="#e1b37c" fill="#e1b37c" style="animation-play-state:paused" ></path>
<path d="M -181 265 L -64 280 L -182 153 Z" stroke="#ead1a6" fill="#ead1a6" style="animation-play-state:paused" ></path>
<path d="M -83 176 L -167 79 L -182 153 Z" stroke="#f1e4c4" fill="#f1e4c4" style="animation-play-state:paused" ></path>
<path d="M -83 176 L -71 59 L -167 79 Z" stroke="#f2e6c7" fill="#f2e6c7" style="animation-play-state:paused" ></path>
<path d="M -181 265 L -163 362 L -70 360 Z" stroke="#e4bf8d" fill="#e4bf8d" style="animation-play-state:paused" ></path>
<path d="M 1548 -15 L 1455 -94 L 1454 -24 Z" stroke="#da965a" fill="#da965a" style="animation-play-state:paused" ></path>
<path d="M 1454 -24 L 1455 -94 L 1339 -120 Z" stroke="#dda46a" fill="#dda46a" style="animation-play-state:paused" ></path>
<path d="M 1339 -120 L 1455 -94 L 1245 -120 Z" stroke="#e0b27b" fill="#e0b27b" style="animation-play-state:paused" ></path>
<path d="M -167 79 L -71 59 L -160 -31 Z" stroke="#f7ead2" fill="#f7ead2" style="animation-play-state:paused" ></path>
<path d="M -282 260 L -243 398 L -163 362 Z" stroke="#e8cb9d" fill="#e8cb9d" style="animation-play-state:paused" ></path>
<path d="M 1548 -15 L 1550 77 L 1548 176 Z" stroke="#b06b3e" fill="#b06b3e" style="animation-play-state:paused" ></path>
<path d="M 1548 176 L 1550 77 L 1443 73 Z" stroke="#a46339" fill="#a46339" style="animation-play-state:paused" ></path>
<path d="M 1537 664 L 1543 580 L 1428 579 Z" stroke="#1d0e0b" fill="#1d0e0b" style="animation-play-state:paused" ></path>
<path d="M 1535 463 L 1543 580 L 1554 292 Z" stroke="#261411" fill="#261411" style="animation-play-state:paused" ></path>
<path d="M -265 473 L -170 568 L -163 496 Z" stroke="#e0b17a" fill="#e0b17a" style="animation-play-state:paused" ></path>
<path d="M -163 496 L -170 568 L -68 577 Z" stroke="#dda369" fill="#dda369" style="animation-play-state:paused" ></path>
<path d="M -160 -31 L -71 59 L -71 -20 Z" stroke="#f8ebd4" fill="#f8ebd4" style="animation-play-state:paused" ></path>
<path d="M 1447 681 L 1537 664 L 1428 579 Z" stroke="#1d0e0b" fill="#1d0e0b" style="animation-play-state:paused" ></path>
<path d="M -170 568 L -139 693 L -63 667 Z" stroke="#db9c61" fill="#db9c61" style="animation-play-state:paused" ></path>
<path d="M -63 667 L -139 693 L 49 680 Z" stroke="#d88e53" fill="#d88e53" style="animation-play-state:paused" ></path>
<path d="M 49 680 L -139 693 L 647 690 Z" stroke="#af6b3e" fill="#af6b3e" style="animation-play-state:paused" ></path>
<path d="M 1554 292 L 1548 -15 L 1548 176 Z" stroke="#945631" fill="#945631" style="animation-play-state:paused" ></path>
<path d="M 1550 77 L 1548 -15 L 1454 -24 Z" stroke="#ca814b" fill="#ca814b" style="animation-play-state:paused" ></path>
<path d="M -43 -104 L -160 -31 L -71 -20 Z" stroke="#fbedda" fill="#fbedda" style="animation-play-state:paused" ></path>
<path d="M -163 362 L -243 398 L -163 496 Z" stroke="#e2ba85" fill="#e2ba85" style="animation-play-state:paused" ></path>
<path d="M -170 568 L -267 665 L -139 693 Z" stroke="#dea86e" fill="#dea86e" style="animation-play-state:paused" ></path>
<path d="M -282 260 L -163 362 L -181 265 Z" stroke="#e9cfa3" fill="#e9cfa3" style="animation-play-state:paused" ></path>
<path d="M -282 260 L -181 265 L -272 156 Z" stroke="#efdfbd" fill="#efdfbd" style="animation-play-state:paused" ></path>
<path d="M -181 265 L -182 153 L -272 156 Z" stroke="#f0e2c0" fill="#f0e2c0" style="animation-play-state:paused" ></path>
<path d="M 1548 -15 L 1542 -108 L 1455 -94 Z" stroke="#dca066" fill="#dca066" style="animation-play-state:paused" ></path>
<path d="M 1455 -94 L 1542 -108 L 1245 -120 Z" stroke="#e0af77" fill="#e0af77" style="animation-play-state:paused" ></path>
<path d="M -272 156 L -182 153 L -279 65 Z" stroke="#f6e9cf" fill="#f6e9cf" style="animation-play-state:paused" ></path>
<path d="M -282 260 L -265 473 L -243 398 Z" stroke="#e7cb9d" fill="#e7cb9d" style="animation-play-state:paused" ></path>
<path d="M -243 398 L -265 473 L -163 496 Z" stroke="#e3bb87" fill="#e3bb87" style="animation-play-state:paused" ></path>
<path d="M -43 -104 L -153 -123 L -160 -31 Z" stroke="#fcefe0" fill="#fcefe0" style="animation-play-state:paused" ></path>
<path d="M -279 65 L -182 153 L -167 79 Z" stroke="#f6e9cf" fill="#f6e9cf" style="animation-play-state:paused" ></path>
<path d="M 56 -121 L -153 -123 L -43 -104 Z" stroke="#fcefe0" fill="#fcefe0" style="animation-play-state:paused" ></path>
<path d="M 635 -122 L -153 -123 L 328 -133 Z" stroke="#f7ead2" fill="#f7ead2" style="animation-play-state:paused" ></path>
<path d="M -277 -123 L -153 -123 L 635 -122 Z" stroke="#fbeddb" fill="#fbeddb" style="animation-play-state:paused" ></path>
<path d="M -279 65 L -167 79 L -251 -2 Z" stroke="#f9ecd7" fill="#f9ecd7" style="animation-play-state:paused" ></path>
<path d="M -282 260 L -276 573 L -265 473 Z" stroke="#e6c595" fill="#e6c595" style="animation-play-state:paused" ></path>
<path d="M -251 -2 L -167 79 L -160 -31 Z" stroke="#faecd8" fill="#faecd8" style="animation-play-state:paused" ></path>
<path d="M -267 665 L -276 573 L -282 260 Z" stroke="#e4bf8b" fill="#e4bf8b" style="animation-play-state:paused" ></path>
<path d="M -265 473 L -276 573 L -170 568 Z" stroke="#e1b57f" fill="#e1b57f" style="animation-play-state:paused" ></path>
<path d="M -277 -123 L -251 -2 L -160 -31 Z" stroke="#fdf0e2" fill="#fdf0e2" style="animation-play-state:paused" ></path>
<path d="M -272 156 L -267 665 L -282 260 Z" stroke="#e9cfa2" fill="#e9cfa2" style="animation-play-state:paused" ></path>
<path d="M -276 573 L -267 665 L -170 568 Z" stroke="#e0b17a" fill="#e0b17a" style="animation-play-state:paused" ></path>
<path d="M 1245 -120 L -277 -123 L 635 -122 Z" stroke="#f0e1be" fill="#f0e1be" style="animation-play-state:paused" ></path>
<path d="M -153 -123 L -277 -123 L -160 -31 Z" stroke="#fef2e6" fill="#fef2e6" style="animation-play-state:paused" ></path>
<path d="M -251 -2 L -277 -123 L -279 65 Z" stroke="#fdf0e1" fill="#fdf0e1" style="animation-play-state:paused" ></path>
<path d="M -279 65 L -277 -123 L -272 156 Z" stroke="#fbeddb" fill="#fbeddb" style="animation-play-state:paused" ></path></g>
<style type="text/css" style="animation-play-state:paused" >#bk-0.36810691156378406 path { stroke-width: 1 }</style></g></svg>